<mxfile host="app.diagrams.net" modified="2024-05-29T13:31:45.330Z" agent="Mozilla/5.0 (Macintosh; Intel Mac OS X 10_15_7) AppleWebKit/537.36 (KHTML, like Gecko) Chrome/124.0.0.0 Safari/537.36" etag="32xGvlw4hECMgDaizu1Y" version="24.4.9" type="device">
  <diagram name="Page-1" id="e3a06f82-3646-2815-327d-82caf3d4e204">
    <mxGraphModel dx="1548" dy="922" grid="1" gridSize="10" guides="1" tooltips="1" connect="1" arrows="1" fold="1" page="1" pageScale="1.5" pageWidth="1169" pageHeight="826" background="none" math="0" shadow="0">
      <root>
        <mxCell id="0" style=";html=1;" />
        <mxCell id="1" style=";html=1;" parent="0" />
        <mxCell id="6a7d8f32e03d9370-60" value="Сеть приложения" style="whiteSpace=wrap;html=1;fillColor=#d5e8d4;fontSize=14;strokeColor=none;verticalAlign=top;" parent="1" vertex="1">
          <mxGeometry x="910" y="98" width="660" height="662" as="geometry" />
        </mxCell>
        <mxCell id="6a7d8f32e03d9370-59" value="FrontEnd сервер" style="whiteSpace=wrap;html=1;fillColor=#EDEDED;fontSize=14;strokeColor=none;verticalAlign=top;" parent="1" vertex="1">
          <mxGeometry x="599" y="98" width="280" height="662" as="geometry" />
        </mxCell>
        <mxCell id="6a7d8f32e03d9370-57" value="Внешние клиенты приложения" style="whiteSpace=wrap;html=1;fillColor=#FFD470;gradientColor=none;fontSize=14;strokeColor=none;verticalAlign=top;" parent="1" vertex="1">
          <mxGeometry x="80" y="98" width="308" height="662" as="geometry" />
        </mxCell>
        <mxCell id="6a7d8f32e03d9370-35" style="edgeStyle=none;rounded=0;html=1;startSize=10;endSize=10;jettySize=auto;orthogonalLoop=1;fontSize=14;endArrow=none;endFill=0;strokeWidth=2;" parent="1" source="6a7d8f32e03d9370-2" target="tk2jrE5zfF2r8cTm9u1F-1" edge="1">
          <mxGeometry relative="1" as="geometry">
            <mxPoint x="637" y="693.320415879017" as="targetPoint" />
          </mxGeometry>
        </mxCell>
        <mxCell id="6a7d8f32e03d9370-2" value="Client" style="verticalLabelPosition=bottom;aspect=fixed;html=1;verticalAlign=top;strokeColor=none;shape=mxgraph.citrix.laptop_2;fillColor=#66B2FF;gradientColor=#0066CC;fontSize=14;" parent="1" vertex="1">
          <mxGeometry x="169.9999999999999" y="645" width="116" height="86.5" as="geometry" />
        </mxCell>
        <mxCell id="6a7d8f32e03d9370-34" style="edgeStyle=none;rounded=0;html=1;startSize=10;endSize=10;jettySize=auto;orthogonalLoop=1;fontSize=14;endArrow=none;endFill=0;strokeWidth=2;" parent="1" source="6a7d8f32e03d9370-3" target="tk2jrE5zfF2r8cTm9u1F-1" edge="1">
          <mxGeometry relative="1" as="geometry">
            <mxPoint x="637" y="529.1465028355387" as="targetPoint" />
          </mxGeometry>
        </mxCell>
        <mxCell id="6a7d8f32e03d9370-3" value="client" style="verticalLabelPosition=bottom;aspect=fixed;html=1;verticalAlign=top;strokeColor=none;shape=mxgraph.citrix.desktop;fillColor=#66B2FF;gradientColor=#0066CC;fontSize=14;" parent="1" vertex="1">
          <mxGeometry x="189.49999999999994" y="479.99999999999994" width="89" height="98" as="geometry" />
        </mxCell>
        <mxCell id="6a7d8f32e03d9370-33" style="edgeStyle=none;rounded=0;html=1;startSize=10;endSize=10;jettySize=auto;orthogonalLoop=1;fontSize=14;endArrow=none;endFill=0;strokeWidth=2;" parent="1" source="6a7d8f32e03d9370-4" target="tk2jrE5zfF2r8cTm9u1F-1" edge="1">
          <mxGeometry relative="1" as="geometry">
            <mxPoint x="637" y="365.14650283553874" as="targetPoint" />
          </mxGeometry>
        </mxCell>
        <mxCell id="6a7d8f32e03d9370-4" value="Client" style="verticalLabelPosition=bottom;aspect=fixed;html=1;verticalAlign=top;strokeColor=none;shape=mxgraph.citrix.desktop;fillColor=#66B2FF;gradientColor=#0066CC;fontSize=14;" parent="1" vertex="1">
          <mxGeometry x="189.49999999999994" y="310.00000000000006" width="89" height="98" as="geometry" />
        </mxCell>
        <mxCell id="6a7d8f32e03d9370-32" style="edgeStyle=none;rounded=0;html=1;startSize=10;endSize=10;jettySize=auto;orthogonalLoop=1;fontSize=14;endArrow=none;endFill=0;strokeWidth=2;" parent="1" source="6a7d8f32e03d9370-5" target="tk2jrE5zfF2r8cTm9u1F-1" edge="1">
          <mxGeometry relative="1" as="geometry">
            <mxPoint x="637" y="201.13687150837995" as="targetPoint" />
          </mxGeometry>
        </mxCell>
        <mxCell id="6a7d8f32e03d9370-5" value="Client" style="verticalLabelPosition=bottom;aspect=fixed;html=1;verticalAlign=top;strokeColor=none;shape=mxgraph.citrix.desktop;fillColor=#66B2FF;gradientColor=#0066CC;fontSize=14;" parent="1" vertex="1">
          <mxGeometry x="190.00000000000006" y="140.00000000000006" width="89" height="98" as="geometry" />
        </mxCell>
        <mxCell id="6a7d8f32e03d9370-49" style="edgeStyle=none;rounded=0;html=1;startSize=10;endSize=10;jettySize=auto;orthogonalLoop=1;fontSize=14;endArrow=none;endFill=0;strokeWidth=2;" parent="1" source="tk2jrE5zfF2r8cTm9u1F-8" target="tk2jrE5zfF2r8cTm9u1F-2" edge="1">
          <mxGeometry relative="1" as="geometry">
            <mxPoint x="1103" y="269.5279255319149" as="sourcePoint" />
            <mxPoint x="1001.7539208364451" y="623.5" as="targetPoint" />
          </mxGeometry>
        </mxCell>
        <mxCell id="6a7d8f32e03d9370-62" value="Инфраструктура веб-приложения" style="text;strokeColor=none;fillColor=none;html=1;fontSize=24;fontStyle=1;verticalAlign=middle;align=center;" parent="1" vertex="1">
          <mxGeometry x="499" y="30" width="861" height="40" as="geometry" />
        </mxCell>
        <mxCell id="tk2jrE5zfF2r8cTm9u1F-1" value="&lt;font style=&quot;font-size: 18px;&quot;&gt;Интернет&lt;/font&gt;" style="verticalLabelPosition=bottom;sketch=0;aspect=fixed;html=1;verticalAlign=top;strokeColor=none;align=center;outlineConnect=0;shape=mxgraph.citrix.cloud;" vertex="1" parent="1">
          <mxGeometry x="420" y="382.11" width="150" height="97.89" as="geometry" />
        </mxCell>
        <mxCell id="tk2jrE5zfF2r8cTm9u1F-3" style="edgeStyle=none;rounded=0;html=1;startSize=10;endSize=10;jettySize=auto;orthogonalLoop=1;fontSize=14;endArrow=none;endFill=0;strokeWidth=2;" edge="1" parent="1" source="tk2jrE5zfF2r8cTm9u1F-1" target="tk2jrE5zfF2r8cTm9u1F-8">
          <mxGeometry relative="1" as="geometry">
            <mxPoint x="552.5" y="519.9978676470588" as="sourcePoint" />
            <mxPoint x="703.5" y="696.61" as="targetPoint" />
          </mxGeometry>
        </mxCell>
        <mxCell id="tk2jrE5zfF2r8cTm9u1F-2" value="backEnd01" style="verticalLabelPosition=top;aspect=fixed;html=1;verticalAlign=bottom;strokeColor=none;shape=mxgraph.citrix.cache_server;fillColor=#66B2FF;gradientColor=#0066CC;fontSize=14;labelPosition=center;align=center;" vertex="1" parent="1">
          <mxGeometry x="990" y="220" width="71" height="97.5" as="geometry" />
        </mxCell>
        <mxCell id="tk2jrE5zfF2r8cTm9u1F-6" value="masterBD&lt;div&gt;192.168.255.100&lt;/div&gt;" style="verticalLabelPosition=bottom;sketch=0;aspect=fixed;html=1;verticalAlign=top;strokeColor=none;align=center;outlineConnect=0;shape=mxgraph.citrix.database_server;" vertex="1" parent="1">
          <mxGeometry x="1270" y="223.75" width="80" height="90" as="geometry" />
        </mxCell>
        <mxCell id="tk2jrE5zfF2r8cTm9u1F-7" value="slaveBD&lt;div&gt;192.168.255.200&lt;/div&gt;" style="verticalLabelPosition=bottom;sketch=0;aspect=fixed;html=1;verticalAlign=top;strokeColor=none;align=center;outlineConnect=0;shape=mxgraph.citrix.database_server;" vertex="1" parent="1">
          <mxGeometry x="1270" y="430" width="80" height="90" as="geometry" />
        </mxCell>
        <mxCell id="tk2jrE5zfF2r8cTm9u1F-8" value="frontEnd" style="verticalLabelPosition=bottom;sketch=0;aspect=fixed;html=1;verticalAlign=top;strokeColor=none;align=center;outlineConnect=0;shape=mxgraph.citrix.proxy_server;" vertex="1" parent="1">
          <mxGeometry x="700.75" y="384" width="76.5" height="90" as="geometry" />
        </mxCell>
        <mxCell id="tk2jrE5zfF2r8cTm9u1F-10" style="edgeStyle=none;rounded=0;html=1;startSize=10;endSize=10;jettySize=auto;orthogonalLoop=1;fontSize=14;endArrow=none;endFill=0;strokeWidth=2;entryX=0.31;entryY=0.564;entryDx=0;entryDy=0;entryPerimeter=0;" edge="1" parent="1" source="tk2jrE5zfF2r8cTm9u1F-8" target="tk2jrE5zfF2r8cTm9u1F-9">
          <mxGeometry relative="1" as="geometry">
            <mxPoint x="787" y="418" as="sourcePoint" />
            <mxPoint x="1000" y="299" as="targetPoint" />
          </mxGeometry>
        </mxCell>
        <mxCell id="tk2jrE5zfF2r8cTm9u1F-9" value="backEnd02" style="verticalLabelPosition=top;aspect=fixed;html=1;verticalAlign=bottom;strokeColor=none;shape=mxgraph.citrix.cache_server;fillColor=#66B2FF;gradientColor=#0066CC;fontSize=14;labelPosition=center;align=center;" vertex="1" parent="1">
          <mxGeometry x="990" y="430" width="71" height="97.5" as="geometry" />
        </mxCell>
        <mxCell id="tk2jrE5zfF2r8cTm9u1F-11" style="edgeStyle=none;rounded=0;html=1;startSize=10;endSize=10;jettySize=auto;orthogonalLoop=1;fontSize=14;endArrow=none;endFill=0;strokeWidth=2;" edge="1" parent="1" source="tk2jrE5zfF2r8cTm9u1F-2" target="tk2jrE5zfF2r8cTm9u1F-7">
          <mxGeometry relative="1" as="geometry">
            <mxPoint x="787" y="418" as="sourcePoint" />
            <mxPoint x="1000" y="299" as="targetPoint" />
          </mxGeometry>
        </mxCell>
        <mxCell id="tk2jrE5zfF2r8cTm9u1F-12" style="edgeStyle=none;rounded=0;html=1;startSize=10;endSize=10;jettySize=auto;orthogonalLoop=1;fontSize=14;endArrow=none;endFill=0;strokeWidth=2;entryX=0.507;entryY=0.462;entryDx=0;entryDy=0;entryPerimeter=0;" edge="1" parent="1" source="tk2jrE5zfF2r8cTm9u1F-6" target="tk2jrE5zfF2r8cTm9u1F-9">
          <mxGeometry relative="1" as="geometry">
            <mxPoint x="1071" y="304" as="sourcePoint" />
            <mxPoint x="1280" y="456" as="targetPoint" />
          </mxGeometry>
        </mxCell>
        <mxCell id="tk2jrE5zfF2r8cTm9u1F-13" value="backup&lt;div&gt;192.168.255.250/24&lt;/div&gt;" style="verticalLabelPosition=bottom;sketch=0;aspect=fixed;html=1;verticalAlign=top;strokeColor=none;align=center;outlineConnect=0;shape=mxgraph.citrix.file_server;" vertex="1" parent="1">
          <mxGeometry x="1430" y="220.5" width="71" height="97" as="geometry" />
        </mxCell>
        <mxCell id="tk2jrE5zfF2r8cTm9u1F-14" style="edgeStyle=none;rounded=0;html=1;startSize=10;endSize=10;jettySize=auto;orthogonalLoop=1;fontSize=14;endArrow=none;endFill=0;strokeWidth=2;" edge="1" parent="1" source="tk2jrE5zfF2r8cTm9u1F-6" target="tk2jrE5zfF2r8cTm9u1F-13">
          <mxGeometry relative="1" as="geometry">
            <mxPoint x="1280" y="308" as="sourcePoint" />
            <mxPoint x="1036" y="485" as="targetPoint" />
          </mxGeometry>
        </mxCell>
      </root>
    </mxGraphModel>
  </diagram>
</mxfile>
